<mxfile host="app.diagrams.net" modified="2021-09-22T07:22:01.284Z" agent="5.0 (Windows NT 10.0; Win64; x64) AppleWebKit/537.36 (KHTML, like Gecko) Chrome/92.0.4515.159 Safari/537.36" etag="0NjkIDzA6JnDs1DwY0le" version="15.2.9" type="github">
  <diagram id="ElPxSYFwyDheUlIrIHFL" name="第 1 页">
    <mxGraphModel dx="2249" dy="1885" grid="1" gridSize="10" guides="1" tooltips="1" connect="1" arrows="1" fold="1" page="1" pageScale="1" pageWidth="827" pageHeight="1169" math="0" shadow="0">
      <root>
        <mxCell id="0" />
        <mxCell id="1" parent="0" />
        <mxCell id="q_8IyYWTSY_DMnupbGD1-1" value="Pipeline" style="rounded=1;whiteSpace=wrap;html=1;fillColor=#f8cecc;strokeColor=#b85450;" vertex="1" parent="1">
          <mxGeometry x="330" y="-760" width="120" height="60" as="geometry" />
        </mxCell>
        <mxCell id="q_8IyYWTSY_DMnupbGD1-2" style="edgeStyle=orthogonalEdgeStyle;rounded=0;orthogonalLoop=1;jettySize=auto;html=1;exitX=0.5;exitY=0;exitDx=0;exitDy=0;entryX=0.5;entryY=0;entryDx=0;entryDy=0;" edge="1" parent="1" source="q_8IyYWTSY_DMnupbGD1-3" target="q_8IyYWTSY_DMnupbGD1-22">
          <mxGeometry relative="1" as="geometry" />
        </mxCell>
        <mxCell id="q_8IyYWTSY_DMnupbGD1-3" value="&lt;span style=&quot;color: rgb(53 , 53 , 53) ; font-family: &amp;#34;pingfangsc&amp;#34; , &amp;#34;microsoft yahei&amp;#34; , &amp;#34;helvetica&amp;#34; , &amp;#34;tahoma&amp;#34; , &amp;#34;arial&amp;#34; , &amp;#34;hiragino sans gb&amp;#34; , &amp;#34;hiragino sans gb w3&amp;#34; , &amp;#34;stxihei&amp;#34; , &amp;#34;stheiti&amp;#34; , &amp;#34;heiti&amp;#34; , &amp;#34;simsun&amp;#34; , sans-serif ; font-size: 14px ; background-color: rgb(255 , 255 , 255)&quot;&gt;DefaultChannelHandlerContext&lt;/span&gt;&lt;br&gt;构造函数中会传入Pipeline" style="rounded=0;whiteSpace=wrap;html=1;fillColor=#dae8fc;strokeColor=#6c8ebf;" vertex="1" parent="1">
          <mxGeometry x="435" y="-1110" width="210" height="60" as="geometry" />
        </mxCell>
        <mxCell id="q_8IyYWTSY_DMnupbGD1-4" style="edgeStyle=orthogonalEdgeStyle;rounded=0;orthogonalLoop=1;jettySize=auto;html=1;exitX=0.5;exitY=0;exitDx=0;exitDy=0;entryX=0.5;entryY=1;entryDx=0;entryDy=0;" edge="1" parent="1" source="q_8IyYWTSY_DMnupbGD1-7" target="q_8IyYWTSY_DMnupbGD1-3">
          <mxGeometry relative="1" as="geometry" />
        </mxCell>
        <mxCell id="q_8IyYWTSY_DMnupbGD1-5" style="edgeStyle=orthogonalEdgeStyle;rounded=0;orthogonalLoop=1;jettySize=auto;html=1;exitX=1;exitY=0.5;exitDx=0;exitDy=0;entryX=0;entryY=0.5;entryDx=0;entryDy=0;" edge="1" parent="1" source="q_8IyYWTSY_DMnupbGD1-7" target="q_8IyYWTSY_DMnupbGD1-29">
          <mxGeometry relative="1" as="geometry" />
        </mxCell>
        <mxCell id="q_8IyYWTSY_DMnupbGD1-6" style="edgeStyle=orthogonalEdgeStyle;rounded=0;orthogonalLoop=1;jettySize=auto;html=1;exitX=1;exitY=0.5;exitDx=0;exitDy=0;entryX=0;entryY=0.5;entryDx=0;entryDy=0;" edge="1" parent="1" source="q_8IyYWTSY_DMnupbGD1-7" target="q_8IyYWTSY_DMnupbGD1-30">
          <mxGeometry relative="1" as="geometry" />
        </mxCell>
        <mxCell id="q_8IyYWTSY_DMnupbGD1-7" value="handler处理业务，内置在&lt;span style=&quot;color: rgb(53 , 53 , 53) ; font-family: &amp;#34;pingfangsc&amp;#34; , &amp;#34;microsoft yahei&amp;#34; , &amp;#34;helvetica&amp;#34; , &amp;#34;tahoma&amp;#34; , &amp;#34;arial&amp;#34; , &amp;#34;hiragino sans gb&amp;#34; , &amp;#34;hiragino sans gb w3&amp;#34; , &amp;#34;stxihei&amp;#34; , &amp;#34;stheiti&amp;#34; , &amp;#34;heiti&amp;#34; , &amp;#34;simsun&amp;#34; , sans-serif ; font-size: 14px ; background-color: rgb(255 , 255 , 255)&quot;&gt;DefaultChannelHandlerContext中&lt;/span&gt;" style="rounded=0;whiteSpace=wrap;html=1;fillColor=#0050ef;strokeColor=#001DBC;fontColor=#ffffff;" vertex="1" parent="1">
          <mxGeometry x="428.75" y="-980" width="222.5" height="60" as="geometry" />
        </mxCell>
        <mxCell id="q_8IyYWTSY_DMnupbGD1-8" style="edgeStyle=orthogonalEdgeStyle;rounded=0;orthogonalLoop=1;jettySize=auto;html=1;exitX=0.5;exitY=0;exitDx=0;exitDy=0;entryX=0.5;entryY=1;entryDx=0;entryDy=0;" edge="1" parent="1" source="q_8IyYWTSY_DMnupbGD1-9" target="q_8IyYWTSY_DMnupbGD1-12">
          <mxGeometry relative="1" as="geometry" />
        </mxCell>
        <mxCell id="q_8IyYWTSY_DMnupbGD1-9" value="AbstractChannelHandlerContext" style="html=1;fillColor=#ffe6cc;strokeColor=#d79b00;" vertex="1" parent="1">
          <mxGeometry x="-140" y="-550" width="190" height="50" as="geometry" />
        </mxCell>
        <mxCell id="q_8IyYWTSY_DMnupbGD1-10" style="edgeStyle=orthogonalEdgeStyle;rounded=0;orthogonalLoop=1;jettySize=auto;html=1;exitX=0.5;exitY=0;exitDx=0;exitDy=0;entryX=0.5;entryY=1;entryDx=0;entryDy=0;" edge="1" parent="1" source="q_8IyYWTSY_DMnupbGD1-11" target="q_8IyYWTSY_DMnupbGD1-9">
          <mxGeometry relative="1" as="geometry" />
        </mxCell>
        <mxCell id="q_8IyYWTSY_DMnupbGD1-11" value="HeadContext" style="html=1;fillColor=#ffe6cc;strokeColor=#d79b00;" vertex="1" parent="1">
          <mxGeometry x="-280" y="-420" width="110" height="50" as="geometry" />
        </mxCell>
        <mxCell id="q_8IyYWTSY_DMnupbGD1-12" value="ChannelHandlerContext" style="html=1;fillColor=#ffe6cc;strokeColor=#d79b00;" vertex="1" parent="1">
          <mxGeometry x="-140" y="-650" width="190" height="50" as="geometry" />
        </mxCell>
        <mxCell id="q_8IyYWTSY_DMnupbGD1-13" style="edgeStyle=orthogonalEdgeStyle;rounded=0;orthogonalLoop=1;jettySize=auto;html=1;exitX=0.5;exitY=0;exitDx=0;exitDy=0;" edge="1" parent="1" source="q_8IyYWTSY_DMnupbGD1-14">
          <mxGeometry relative="1" as="geometry">
            <mxPoint x="-45" y="-500" as="targetPoint" />
          </mxGeometry>
        </mxCell>
        <mxCell id="q_8IyYWTSY_DMnupbGD1-14" value="TailContext" style="html=1;fillColor=#ffe6cc;strokeColor=#d79b00;" vertex="1" parent="1">
          <mxGeometry x="-150" y="-420" width="110" height="50" as="geometry" />
        </mxCell>
        <mxCell id="q_8IyYWTSY_DMnupbGD1-15" style="edgeStyle=orthogonalEdgeStyle;rounded=0;orthogonalLoop=1;jettySize=auto;html=1;exitX=0.5;exitY=0;exitDx=0;exitDy=0;" edge="1" parent="1" source="q_8IyYWTSY_DMnupbGD1-16" target="q_8IyYWTSY_DMnupbGD1-9">
          <mxGeometry relative="1" as="geometry" />
        </mxCell>
        <mxCell id="q_8IyYWTSY_DMnupbGD1-16" value="&lt;span style=&quot;color: rgb(53 , 53 , 53) ; font-family: &amp;#34;pingfangsc&amp;#34; , &amp;#34;microsoft yahei&amp;#34; , &amp;#34;helvetica&amp;#34; , &amp;#34;tahoma&amp;#34; , &amp;#34;arial&amp;#34; , &amp;#34;hiragino sans gb&amp;#34; , &amp;#34;hiragino sans gb w3&amp;#34; , &amp;#34;stxihei&amp;#34; , &amp;#34;stheiti&amp;#34; , &amp;#34;heiti&amp;#34; , &amp;#34;simsun&amp;#34; , sans-serif ; font-size: 14px ; background-color: rgb(255 , 255 , 255)&quot;&gt;DefaultChannelHandlerContext&lt;/span&gt;" style="html=1;fillColor=#ffe6cc;strokeColor=#d79b00;" vertex="1" parent="1">
          <mxGeometry x="-20" y="-420" width="230" height="50" as="geometry" />
        </mxCell>
        <mxCell id="q_8IyYWTSY_DMnupbGD1-17" style="edgeStyle=orthogonalEdgeStyle;rounded=0;orthogonalLoop=1;jettySize=auto;html=1;exitX=0.5;exitY=0;exitDx=0;exitDy=0;entryX=1;entryY=0.5;entryDx=0;entryDy=0;" edge="1" parent="1" source="q_8IyYWTSY_DMnupbGD1-18" target="q_8IyYWTSY_DMnupbGD1-1">
          <mxGeometry relative="1" as="geometry" />
        </mxCell>
        <mxCell id="q_8IyYWTSY_DMnupbGD1-18" value="channel创建时，会创建默认的Pipeline" style="ellipse;whiteSpace=wrap;html=1;fillColor=#a20025;strokeColor=#6F0000;fontColor=#ffffff;" vertex="1" parent="1">
          <mxGeometry x="480" y="-650" width="120" height="80" as="geometry" />
        </mxCell>
        <mxCell id="q_8IyYWTSY_DMnupbGD1-19" style="edgeStyle=orthogonalEdgeStyle;rounded=0;orthogonalLoop=1;jettySize=auto;html=1;exitX=0.5;exitY=1;exitDx=0;exitDy=0;" edge="1" parent="1" source="q_8IyYWTSY_DMnupbGD1-20">
          <mxGeometry relative="1" as="geometry">
            <mxPoint x="390" y="-760" as="targetPoint" />
          </mxGeometry>
        </mxCell>
        <mxCell id="q_8IyYWTSY_DMnupbGD1-20" value="HeadContext" style="rounded=0;whiteSpace=wrap;html=1;fillColor=#ffe6cc;strokeColor=#d79b00;" vertex="1" parent="1">
          <mxGeometry x="70" y="-910" width="120" height="60" as="geometry" />
        </mxCell>
        <mxCell id="q_8IyYWTSY_DMnupbGD1-21" style="edgeStyle=orthogonalEdgeStyle;rounded=0;orthogonalLoop=1;jettySize=auto;html=1;exitX=0.5;exitY=1;exitDx=0;exitDy=0;entryX=0.5;entryY=0;entryDx=0;entryDy=0;" edge="1" parent="1" source="q_8IyYWTSY_DMnupbGD1-22" target="q_8IyYWTSY_DMnupbGD1-1">
          <mxGeometry relative="1" as="geometry" />
        </mxCell>
        <mxCell id="q_8IyYWTSY_DMnupbGD1-22" value="TailContext" style="rounded=0;whiteSpace=wrap;html=1;fillColor=#fff2cc;strokeColor=#d6b656;" vertex="1" parent="1">
          <mxGeometry x="290" y="-910" width="120" height="60" as="geometry" />
        </mxCell>
        <mxCell id="q_8IyYWTSY_DMnupbGD1-23" value="" style="endArrow=classic;html=1;entryX=0;entryY=0.25;entryDx=0;entryDy=0;" edge="1" parent="1" target="q_8IyYWTSY_DMnupbGD1-22">
          <mxGeometry width="50" height="50" relative="1" as="geometry">
            <mxPoint x="190" y="-890" as="sourcePoint" />
            <mxPoint x="240" y="-940" as="targetPoint" />
            <Array as="points">
              <mxPoint x="230" y="-910" />
            </Array>
          </mxGeometry>
        </mxCell>
        <mxCell id="q_8IyYWTSY_DMnupbGD1-24" value="" style="endArrow=classic;html=1;entryX=1;entryY=0.75;entryDx=0;entryDy=0;exitX=0;exitY=0.75;exitDx=0;exitDy=0;" edge="1" parent="1" source="q_8IyYWTSY_DMnupbGD1-22" target="q_8IyYWTSY_DMnupbGD1-20">
          <mxGeometry width="50" height="50" relative="1" as="geometry">
            <mxPoint x="200" y="-850" as="sourcePoint" />
            <mxPoint x="250" y="-900" as="targetPoint" />
            <Array as="points">
              <mxPoint x="240" y="-850" />
            </Array>
          </mxGeometry>
        </mxCell>
        <mxCell id="q_8IyYWTSY_DMnupbGD1-25" value="next" style="text;html=1;strokeColor=none;fillColor=none;align=center;verticalAlign=middle;whiteSpace=wrap;rounded=0;" vertex="1" parent="1">
          <mxGeometry x="220" y="-930" width="40" height="20" as="geometry" />
        </mxCell>
        <mxCell id="q_8IyYWTSY_DMnupbGD1-26" value="prev" style="text;html=1;strokeColor=none;fillColor=none;align=center;verticalAlign=middle;whiteSpace=wrap;rounded=0;" vertex="1" parent="1">
          <mxGeometry x="220" y="-850" width="40" height="20" as="geometry" />
        </mxCell>
        <mxCell id="q_8IyYWTSY_DMnupbGD1-27" value="Pipeline构造函数会创建两个事件上下文HeadContext,TailContext" style="text;html=1;strokeColor=none;fillColor=none;align=center;verticalAlign=middle;whiteSpace=wrap;rounded=0;" vertex="1" parent="1">
          <mxGeometry x="390" y="-830" width="170" height="50" as="geometry" />
        </mxCell>
        <mxCell id="q_8IyYWTSY_DMnupbGD1-28" value="业务处理Handler/Context会使用addLast（）添加到TailContext前面" style="text;html=1;strokeColor=none;fillColor=none;align=center;verticalAlign=middle;whiteSpace=wrap;rounded=0;" vertex="1" parent="1">
          <mxGeometry x="180" y="-1120" width="150" height="80" as="geometry" />
        </mxCell>
        <mxCell id="q_8IyYWTSY_DMnupbGD1-29" value="ChannelInBoundHandler&lt;br&gt;入站" style="rounded=0;whiteSpace=wrap;html=1;fillColor=#1ba1e2;strokeColor=#006EAF;fontColor=#ffffff;" vertex="1" parent="1">
          <mxGeometry x="730" y="-1025" width="160" height="60" as="geometry" />
        </mxCell>
        <mxCell id="q_8IyYWTSY_DMnupbGD1-30" value="ChannelOutBoundHandler&lt;br&gt;出站" style="rounded=0;whiteSpace=wrap;html=1;fillColor=#1ba1e2;strokeColor=#006EAF;fontColor=#ffffff;" vertex="1" parent="1">
          <mxGeometry x="730" y="-945" width="160" height="60" as="geometry" />
        </mxCell>
        <mxCell id="q_8IyYWTSY_DMnupbGD1-31" value="UML" style="text;html=1;strokeColor=none;fillColor=none;align=center;verticalAlign=middle;whiteSpace=wrap;rounded=0;" vertex="1" parent="1">
          <mxGeometry x="-245" y="-640" width="40" height="20" as="geometry" />
        </mxCell>
      </root>
    </mxGraphModel>
  </diagram>
</mxfile>
